<svg width="690" height="690" viewBox="0 0 690 690" fill="none" xmlns="http://www.w3.org/2000/svg">
<path fill-rule="evenodd" clip-rule="evenodd" d="M324.305 4.60436C368.951 1.94001 413.683 8.10285 455.949 22.7411C498.215 37.3793 537.187 60.2063 570.638 89.9189C604.09 119.631 631.367 155.648 650.912 195.912C670.457 236.175 681.887 279.898 684.55 324.583C687.212 369.268 681.054 414.041 666.428 456.344C651.802 498.647 628.994 537.652 599.307 571.133C569.62 604.614 533.634 631.914 493.406 651.476C453.177 671.037 409.493 682.476 364.848 685.141C320.203 687.805 275.47 681.642 233.204 667.004C190.938 652.366 151.967 629.539 118.515 599.826C85.0631 570.113 57.7858 534.097 38.2409 493.833C18.6959 453.57 7.26602 409.847 4.60386 365.162C1.94171 320.477 8.09947 275.704 22.7255 233.401C37.3515 191.098 60.1593 152.093 89.8466 118.612C119.534 85.1312 155.519 57.8309 195.747 38.2695C235.976 18.7081 279.66 7.26871 324.305 4.60436ZM457.258 18.9613C414.496 4.15109 369.237 -2.08421 324.067 0.611465C278.897 3.30714 234.699 14.881 193.998 34.6722C153.297 54.4634 116.889 82.0844 86.8537 115.958C56.818 149.832 33.7426 189.295 18.9451 232.094C4.14752 274.893 -2.08242 320.191 0.610942 365.4C3.30431 410.609 14.8682 454.844 34.6425 495.58C54.4167 536.316 82.014 572.755 115.859 602.817C149.703 632.878 189.132 655.973 231.895 670.784C274.658 685.594 319.916 691.829 365.086 689.133C410.257 686.438 454.454 674.864 495.155 655.073C535.856 635.282 572.264 607.661 602.3 573.787C632.335 539.913 655.411 500.45 670.208 457.651C685.006 414.852 691.236 369.554 688.542 324.345C685.849 279.136 674.285 234.901 654.511 194.165C634.737 153.429 607.139 116.99 573.295 86.9283C539.45 56.8668 500.021 33.7716 457.258 18.9613ZM585.633 345.079C585.633 478.26 477.668 586.224 344.487 586.224C211.307 586.224 103.342 478.26 103.342 345.079C103.342 211.898 211.307 103.934 344.487 103.934C477.668 103.934 585.633 211.898 585.633 345.079ZM635.914 345.079C635.914 506.03 505.438 636.506 344.487 636.506C183.537 636.506 53.0605 506.03 53.0605 345.079C53.0605 184.129 183.537 53.6523 344.487 53.6523C505.438 53.6523 635.914 184.129 635.914 345.079ZM488.566 344.852C488.566 424.244 424.115 488.704 344.487 488.704C264.859 488.704 200.409 424.244 200.409 344.852C200.409 265.46 264.859 201 344.487 201C424.115 201 488.566 265.46 488.566 344.852ZM538.847 344.852C538.847 452.069 451.829 538.985 344.487 538.985C237.145 538.985 150.127 452.069 150.127 344.852C150.127 237.635 237.145 150.719 344.487 150.719C451.829 150.719 538.847 237.635 538.847 344.852ZM344.487 398.441C373.855 398.441 397.849 374.552 397.849 344.852C397.849 315.152 373.855 291.264 344.487 291.264C315.12 291.264 291.125 315.152 291.125 344.852C291.125 374.552 315.12 398.441 344.487 398.441ZM344.487 448.723C401.728 448.723 448.131 402.218 448.131 344.852C448.131 287.486 401.728 240.982 344.487 240.982C287.247 240.982 240.844 287.486 240.844 344.852C240.844 402.218 287.247 448.723 344.487 448.723Z" fill="#ffffff"/>
</svg>
