<svg width="20" height="20" viewBox="0 0 20 20" fill="none" xmlns="http://www.w3.org/2000/svg">
<path fill-rule="evenodd" clip-rule="evenodd" d="M20 10C20 15.5228 15.5228 20 10 20C4.47715 20 0 15.5228 0 10C0 4.47715 4.47715 0 10 0C15.5228 0 20 4.47715 20 10ZM9.16667 4.16667C9.16667 3.70643 9.53976 3.33333 10 3.33333C10.4602 3.33333 10.8333 3.70643 10.8333 4.16667V10H15C15.4602 10 15.8333 10.3731 15.8333 10.8333C15.8333 11.2936 15.4602 11.6667 15 11.6667L10 11.6667C9.94247 11.6667 9.8863 11.6608 9.83205 11.6497C9.45232 11.572 9.16667 11.236 9.16667 10.8333C9.16667 10.8329 9.16667 10.8325 9.16667 10.8321V4.16667Z" fill="white"/>
</svg>
