<svg width="375" height="350" viewBox="0 0 375 350" fill="none" xmlns="http://www.w3.org/2000/svg">
<path fill-rule="evenodd" clip-rule="evenodd" d="M375 150.806C364.394 150.263 353.896 148.225 343.821 144.736C329.799 139.879 316.87 132.306 305.772 122.449C294.674 112.592 285.625 100.643 279.141 87.2855C272.657 73.9278 268.865 59.4227 267.982 44.5983C267.098 29.7738 269.141 14.9205 273.993 0.886269C274.096 0.590357 274.199 0.294932 274.304 0H292.286C287.288 11.64 284.52 24.4644 284.52 37.9353C284.52 89.1494 324.531 131.018 375 133.988V150.806ZM310.722 0C304.599 11.2777 301.121 24.2004 301.121 37.9353C301.121 79.9776 333.707 114.409 375 117.351V101.705C342.248 98.8051 316.567 71.3282 316.567 37.8603C316.567 23.698 321.166 10.6084 328.953 0H310.722ZM352.011 0C340.56 8.67646 333.169 22.4123 333.169 37.8603C333.169 62.1362 351.42 82.1838 375 85.0141V71.6751C358.834 68.9385 346.521 54.8406 346.521 37.8605C346.521 20.8804 358.834 6.78251 375 4.04591V0H352.011ZM375 21.1286C368.103 23.5158 363.122 30.085 363.122 37.8605C363.122 45.636 368.103 52.2052 375 54.5924V21.1286ZM375 151.588V350H0V0H273.475C273.401 0.210081 273.328 0.420409 273.255 0.630982C268.369 14.7621 266.312 29.718 267.202 44.6447C268.091 59.5715 271.909 74.1767 278.438 87.6266C284.967 101.077 294.079 113.108 305.253 123.033C316.428 132.959 329.446 140.584 343.565 145.474C353.723 148.992 364.307 151.044 375 151.588Z" fill="#CE0D0F" fill-opacity="0.85"/>
</svg>
