<svg width="20" height="26" viewBox="0 0 20 26" fill="none" xmlns="http://www.w3.org/2000/svg">
<path d="M8.8538 24.9985C6.32925 21.8397 0.714294 14.184 0.714294 9.88373C0.714294 4.66639 4.87159 0.437012 10 0.437012C15.1265 0.437012 19.2857 4.66639 19.2857 9.88373C19.2857 14.184 13.6272 21.8397 11.1462 24.9985C10.5513 25.7513 9.44867 25.7513 8.8538 24.9985ZM10 13.0326C11.7072 13.0326 13.0952 11.6205 13.0952 9.88373C13.0952 8.14691 11.7072 6.73482 10 6.73482C8.29279 6.73482 6.90477 8.14691 6.90477 9.88373C6.90477 11.6205 8.29279 13.0326 10 13.0326Z" fill="#282828" fill-opacity="0.5"/>
</svg>
