<svg width="22" height="22" viewBox="0 0 22 22" fill="none" xmlns="http://www.w3.org/2000/svg">
<path d="M14.5723 15.5148L16.4175 13.6689C16.6661 13.4234 16.9805 13.2553 17.3227 13.1851C17.6648 13.1148 18.02 13.1455 18.3451 13.2733L20.594 14.1716C20.9225 14.305 21.2042 14.5327 21.4035 14.826C21.6029 15.1193 21.711 15.4651 21.7143 15.8198V19.9402C21.7124 20.1815 21.6617 20.4199 21.5652 20.641C21.4688 20.8622 21.3286 21.0615 21.1532 21.2271C20.9777 21.3926 20.7705 21.5209 20.5442 21.6042C20.3179 21.6876 20.077 21.7242 19.8361 21.712C4.07771 20.7313 0.898016 7.38112 0.296676 2.27179C0.268761 2.02088 0.294266 1.76691 0.371512 1.52657C0.448759 1.28624 0.575996 1.06499 0.744853 0.87738C0.913711 0.689772 1.12036 0.540056 1.35121 0.438083C1.58206 0.33611 1.83187 0.28419 2.08422 0.285739H6.06295C6.418 0.286791 6.76461 0.39408 7.05821 0.593807C7.35181 0.793534 7.57896 1.07657 7.71046 1.4065L8.60835 3.65625C8.74036 3.98017 8.77404 4.33583 8.70518 4.67879C8.63633 5.02175 8.46799 5.33681 8.22119 5.58461L6.37598 7.43057C6.37598 7.43057 7.43862 14.6248 14.5723 15.5148Z" fill="#282828" fill-opacity="0.5"/>
</svg>
