<svg width="509" height="537" viewBox="0 0 509 537" fill="none" xmlns="http://www.w3.org/2000/svg">
<circle cx="253.24" cy="249.534" r="170" transform="rotate(-180 253.24 249.534)" stroke="#282828" stroke-opacity="0.1" stroke-width="2"/>
<circle cx="97.7838" cy="314.133" r="4.50597" transform="rotate(-180 97.7838 314.133)" fill="#E91D1F"/>
<ellipse cx="252.54" cy="251" rx="250" ry="251.54" transform="rotate(90 252.54 251)" stroke="#282828" stroke-opacity="0.1" stroke-width="2"/>
<circle cx="367.955" cy="374.961" r="4" transform="rotate(-180 367.955 374.961)" fill="#E91D1F"/>
<path d="M360.455 374.961C360.455 370.819 363.813 367.461 367.955 367.461C372.097 367.461 375.455 370.819 375.455 374.961C375.455 379.103 372.097 382.461 367.955 382.461C363.813 382.461 360.455 379.103 360.455 374.961Z" stroke="#E91D1F"/>
<path d="M192.68 494.521C241.736 507.629 293.627 505.425 341.396 488.205C389.164 470.986 430.526 439.574 459.936 398.181C489.346 356.789 505.399 307.394 505.941 256.619C506.483 205.845 491.49 156.119 462.97 114.107" stroke="#E91D1F" stroke-width="5"/>
<circle cx="193.53" cy="494.536" r="12.5199" transform="rotate(105.446 193.53 494.536)" stroke="#E91D1F" stroke-width="5"/>
<circle cx="193.53" cy="494.536" r="23.7848" transform="rotate(105.446 193.53 494.536)" stroke="#E91D1F" stroke-width="5"/>
<circle cx="193.53" cy="494.535" r="33.2948" transform="rotate(105.446 193.53 494.535)" stroke="#E91D1F"/>
<circle cx="193.213" cy="494.733" r="5.63246" transform="rotate(105.446 193.213 494.733)" fill="#E91D1F"/>
</svg>
