<svg width="13" height="19" viewBox="0 0 13 19" fill="none" xmlns="http://www.w3.org/2000/svg">
<path d="M5.69766 17.8988C3.93047 15.6877 0 10.3287 0 7.31851C0 3.66637 2.9101 0.705811 6.5 0.705811C10.0885 0.705811 13 3.66637 13 7.31851C13 10.3287 9.03906 15.6877 7.30234 17.8988C6.88594 18.4258 6.11406 18.4258 5.69766 17.8988ZM6.5 9.52275C7.69505 9.52275 8.66667 8.53428 8.66667 7.31851C8.66667 6.10274 7.69505 5.11428 6.5 5.11428C5.30495 5.11428 4.33333 6.10274 4.33333 7.31851C4.33333 8.53428 5.30495 9.52275 6.5 9.52275Z" fill="#282828"/>
</svg>
