<svg width="20" height="24" viewBox="0 0 20 24" fill="none" xmlns="http://www.w3.org/2000/svg">
<path d="M10 0C12.6522 0 15.1957 1.08368 17.0711 3.01264C18.9464 4.9416 20 7.55783 20 10.2858C20 15.2007 16.775 19.7247 10.4467 23.8665C10.3131 23.9537 10.1582 24 10 24C9.84181 24 9.68688 23.9537 9.55333 23.8665C3.225 19.7247 0 15.2007 0 10.2858C0 7.55783 1.05357 4.9416 2.92893 3.01264C4.8043 1.08368 7.34784 0 10 0ZM10 6.8572C9.11594 6.8572 8.2681 7.21842 7.64298 7.86141C7.01786 8.5044 6.66667 9.37647 6.66667 10.2858C6.66667 11.1951 7.01786 12.0672 7.64298 12.7102C8.2681 13.3532 9.11594 13.7144 10 13.7144C10.8841 13.7144 11.7319 13.3532 12.357 12.7102C12.9821 12.0672 13.3333 11.1951 13.3333 10.2858C13.3333 9.37647 12.9821 8.5044 12.357 7.86141C11.7319 7.21842 10.8841 6.8572 10 6.8572Z" fill="white"/>
</svg>
