<svg width="375" height="812" viewBox="0 0 375 812" fill="none" xmlns="http://www.w3.org/2000/svg">
<path fill-rule="evenodd" clip-rule="evenodd" d="M375 661.479C364.394 662.021 353.896 664.056 343.821 667.54C329.799 672.39 316.87 679.952 305.772 689.795C294.674 699.638 285.625 711.569 279.141 724.908C272.657 738.246 268.865 752.73 267.982 767.533C267.098 782.335 269.141 797.167 273.993 811.181C274.096 811.477 274.199 811.772 274.304 812.067L292.286 812.067C287.288 800.443 284.519 787.637 284.519 774.186C284.519 723.045 324.531 681.237 375 678.271L375 661.479ZM310.729 812.067C304.601 800.804 301.121 787.899 301.121 774.186C301.121 732.237 333.688 697.845 375 694.908L375 710.508C342.248 713.404 316.568 740.841 316.568 774.261C316.568 788.403 321.166 801.473 328.953 812.067L310.729 812.067ZM352.036 812.067C340.567 803.404 333.169 789.681 333.169 774.261C333.169 750.051 351.403 730.024 375 727.198L375 740.495C358.834 743.227 346.521 757.305 346.521 774.261C346.521 791.216 358.834 805.294 375 808.027L375 812.067L352.036 812.067ZM375 790.947C368.093 788.563 363.122 782 363.122 774.261C363.122 766.521 368.093 759.958 375 757.575L375 790.947ZM375 660.697L375 3.27835e-05L7.09931e-05 0L4.03893e-05 812.067L273.475 812.067C273.401 811.857 273.328 811.647 273.255 811.437C268.369 797.326 266.312 782.391 267.202 767.486C268.091 752.581 271.909 737.997 278.438 724.566C284.967 711.135 294.079 699.122 305.253 689.21C316.428 679.299 329.446 671.685 343.565 666.802C353.723 663.289 364.307 661.239 375 660.697Z" fill="#CE0D0F" fill-opacity="0.85"/>
</svg>
