<svg width="504" height="507" viewBox="0 0 504 507" fill="none" xmlns="http://www.w3.org/2000/svg">
<ellipse rx="170.297" ry="171.346" transform="matrix(-1 -8.74228e-08 -8.74228e-08 1 251.747 254.098)" stroke="#282828" stroke-opacity="0.1" stroke-width="1.51355"/>
<path d="M143.13 122.128C170.269 99.5156 203.711 85.9299 238.846 83.2441C273.981 80.5583 309.079 88.9046 339.302 107.132C369.525 125.36 393.384 152.572 407.59 185.017C421.796 217.461 425.65 253.541 418.621 288.282" stroke="#E91D1F" stroke-width="3.78388"/>
<circle r="5.67581" transform="matrix(-1 -8.74228e-08 -8.74228e-08 1 143.434 121.949)" fill="#E91D1F"/>
<circle r="9.83808" transform="matrix(-1 -8.74228e-08 -8.74228e-08 1 143.434 121.949)" stroke="#E91D1F" stroke-width="0.756775"/>
<ellipse rx="78.3736" ry="79.142" transform="matrix(-1 -8.74228e-08 -8.74228e-08 1 251.467 254.098)" stroke="#282828" stroke-opacity="0.1" stroke-width="1.51355"/>
<ellipse rx="250.482" ry="252.025" transform="matrix(-1 -8.74228e-08 -8.74228e-08 1 251.482 254.025)" stroke="#282828" stroke-opacity="0.1" stroke-width="1.51355"/>
<circle r="5.67581" transform="matrix(-1 -8.74228e-08 -8.74228e-08 1 442.578 417.091)" fill="#E91D1F"/>
<circle r="9.83808" transform="matrix(-1 -8.74228e-08 -8.74228e-08 1 442.578 417.091)" stroke="#E91D1F" stroke-width="0.756775"/>
<path d="M34.5582 128.012C51.9645 97.6782 75.4641 71.3277 103.558 50.6422C131.651 29.9567 163.722 15.3905 197.723 7.87292C231.724 0.35535 266.909 0.051516 301.034 6.9808C335.158 13.9101 367.473 27.9203 395.915 48.1176C424.357 68.3149 448.303 94.2557 466.224 124.285C484.145 154.314 495.648 187.772 499.999 222.524C504.351 257.277 501.454 292.56 491.495 326.123C481.536 359.686 464.733 390.792 442.158 417.456" stroke="#E91D1F" stroke-width="3.78388"/>
<circle r="13.2436" transform="matrix(-0.858137 0.513421 0.513421 0.858137 418.818 286.626)" stroke="#E91D1F" stroke-width="3.78387"/>
<circle r="24.5952" transform="matrix(-0.858137 0.513421 0.513421 0.858137 418.818 286.626)" stroke="#E91D1F" stroke-width="3.78387"/>
<circle r="33.2981" transform="matrix(-0.858137 0.513421 0.513421 0.858137 418.819 286.626)" stroke="#E91D1F" stroke-width="1.51355"/>
<circle r="5.67581" transform="matrix(-0.858137 0.513421 0.513421 0.858137 418.712 286.987)" fill="#E91D1F"/>
</svg>
